<?xml version="1.0" encoding="UTF-8"?>
<svg id="Layer_1" xmlns="http://www.w3.org/2000/svg" version="1.1" viewBox="0 0 2000 2000">
  <!-- Generator: Adobe Illustrator 29.1.0, SVG Export Plug-In . SVG Version: 2.1.0 Build 142)  -->
  <defs>
    <style>
      .st0 {
        fill: #f5ede0;
      }

      .st1 {
        fill: #66352b;
      }
    </style>
  </defs>
  <ellipse class="st0" cx="1000" cy="997" rx="864.9" ry="889.8"/>
  <path class="st1" d="M928.2,84.1c785.7-57.4,1227.5,837.4,784.5,1462.4-379.5,535.3-1162.9,480.9-1481-85.7C-88.3,890.8,258.7,133,928.2,84.1ZM716.4,934v-361.4c0-4.4,10.7-14.9,14.8-18.8,19.4-18.4,151.3-104.5,176.2-115.1,48.8-20.7,105.9,30.3,148,58.1,17.2,11.4,97.9,60.2,97.9,75.8v282.9c81.7-57.3,151-130,250.9-155.3,138.2-35,245.6-1.1,359.7,76.8-53.1-236.9-239.4-452.5-465.1-540.6C827.4,52.5,334.2,320.5,223.5,808l99.6-29.2c129.8-28.5,232.4-2.5,329,87.8,23,21.5,38.3,49.1,64.3,67.4h0ZM996.6,564.3l-58.9-43-64.4,43h123.3ZM1069.4,642.7h-274.5v756.3c90.5-14,183-32.6,274.5-16.8v-739.6h0ZM1153.5,990.1h305.3c12.8,0,199.5,120.4,217.6,135.3,5.6,4.6,20.5,18.4,20.5,24.4v243.7l43.5-93.8c23.5-72.2,47-152,52-228.2,1.7-25.6,3.3-170-7.3-180.9-93.9-50.9-166.6-119.7-280.5-116.9-149,3.7-235.1,109.5-345.9,190.8l-5.2,25.6h0ZM618.4,1046.1c26.9-2.9,61.6,0,89.6,0s7.5,10.7,8.4,2.7c-.5-11.5-21.4-17.1-33.7-27.9-60.1-52.8-104.8-126.1-184.8-151.3-104.8-33.2-186.8,4-284.7,37.6-10.4,11.8-9.5,187.1-.5,194.4,68.9,1.1,134.2,19.5,197.6,44.3,53.4-45.1,137.5-92.3,208-99.7h0ZM1442,1079.7h-288.5v308.1c87.6,17.4,173.2,50.7,251.4,93.1,51.8,28.1,105.9,62.1,135.2,114.1,10.4,7.3,61.4-56.4,69.7-67.4l1.9-337.7c-1.4-6-6.1-8.6-10.3-12.1-12.7-10.5-150.3-96.4-159.5-98.2h.1ZM716.4,1135.7c-35-1.5-73.1-5-107.9,1.3-19.5,3.6-116.4,37-116.2,57.5,75.7,42.7,132.8,106.5,181.7,177,11.9,17.2,21.1,54.4,42.5,49.9v-285.7h0ZM626.8,1455c-77.3-140.8-233-258.9-397.8-263.2,28.6,132.5,89.8,258.6,184.8,355.9l213-92.7h0ZM1016.2,1463.8c-190.8,0-374.6,60.9-540.6,150.9,0,8,99.6,86.9,113.8,85.6,10.5-.9,76.4-36.6,96-43.8,170.9-62.5,403.2-95.7,572.6-17.6,24.1,11.1,123.6,80,132.2,78.7,9.6-1.4,99.3-63.3,99.2-69.3-51.6-60.3-127.4-99.7-199.6-130.9-96.5-41.7-168.1-53.7-273.7-53.7h.1ZM1299.1,1757.7c-186.5-128.6-416.9-79.5-616.3-11.2,8,13.5,29,20.7,43.3,26.6,131,54.7,306.5,61.3,444.1,32.2,10.7-2.3,137.4-35,128.8-47.6h0Z"/>
  <path class="st1" d="M972.4,717.3c20.3,22.1,19.4,126.1-3.3,147.1-22.2,20.5-65.3,10.9-72.1-18.5-3.3-14.5-3.8-102.3,0-115.3,8-27.4,55.4-35.3,75.5-13.4h-.1Z"/>
  <path class="st1" d="M1292.1,1159c21.6-3.8,47.9,13,51.5,35.9,2.4,15.1,2.9,80.9-.8,93.7-11.1,38.1-80.7,36.9-88.2-10.4-5.4-34.2-7.4-111.3,37.4-119.3h0Z"/>
  <path class="st1" d="M1465.8,1159c21.6-3.8,47.9,13,51.5,35.9,2.4,15.1,2.9,80.9-.8,93.7-11.1,38.1-80.7,36.9-88.2-10.4-5.4-34.2-7.4-111.3,37.4-119.3h0Z"/>
</svg>